{
    "asset": {
        "version": "2.0",
        "generator": "Open Asset Import Library (assimp v5.4.0)"
    },
    "extensionsUsed": [
        "KHR_materials_specular",
        "KHR_materials_volume",
        "FB_ngon_encoding"
    ],
    "accessors": [
        {
            "bufferView": 0,
            "byteOffset": 0,
            "componentType": 5126,
            "count": 28398,
            "type": "VEC3",
            "max": [
                0.17258432507514954,
                0.49985307455062866,
                0.16439375281333923
            ],
            "min": [
                -0.17249591648578644,
                -0.4999566078186035,
                -0.16445769369602203
            ]
        },
        {
            "bufferView": 1,
            "byteOffset": 0,
            "componentType": 5126,
            "count": 28398,
            "type": "VEC3",
            "max": [
                0.9999998807907104,
                1.0,
                1.0
            ],
            "min": [
                -1.0,
                -1.0,
                -1.0
            ]
        },
        {
            "bufferView": 2,
            "byteOffset": 0,
            "componentType": 5126,
            "count": 28398,
            "type": "VEC2",
            "max": [
                0.9970041513442993,
                0.998287558555603
            ],
            "min": [
                0.0017125073354691267,
                0.0017124414443969727
            ]
        },
        {
            "bufferView": 3,
            "byteOffset": 0,
            "componentType": 5125,
            "count": 101976,
            "type": "SCALAR",
            "max": [
                28397
            ],
            "min": [
                0
            ]
        }
    ],
    "buffers": [
        {
            "byteLength": 1316640,
            "uri": "c90d9368-2605-4604-83ff-d08b10b288a6.bin"
        }
    ],
    "bufferViews": [
        {
            "buffer": 0,
            "byteOffset": 0,
            "byteLength": 340776,
            "target": 34962
        },
        {
            "buffer": 0,
            "byteOffset": 340776,
            "byteLength": 340776,
            "target": 34962
        },
        {
            "buffer": 0,
            "byteOffset": 681552,
            "byteLength": 227184,
            "target": 34962
        },
        {
            "buffer": 0,
            "byteOffset": 908736,
            "byteLength": 407904,
            "target": 34963
        }
    ],
    "images": [
        {
            "name": "tripo_convert_9668eeef-8965-4b7b-927f-b591e6922be9.fbm/tripo_node_662bd0ed-26ee-4af6-a85e-6512e518879c_BaseColor.jpg",
            "uri": "data:image/jpeg;base64,"
        },
        {
            "name": "tripo_convert_9668eeef-8965-4b7b-927f-b591e6922be9.fbm/ornatewoodentable3dmodel_metallic.JPEG",
            "uri": "data:image/jpeg;base64,"
        },
        {
            "name": "tripo_convert_9668eeef-8965-4b7b-927f-b591e6922be9.fbm/tripo_node_662bd0ed-26ee-4af6-a85e-6512e518879c_Normal_Bake.jpg",
            "uri": "data:image/jpeg;base64,"
        }
    ],
    "materials": [
        {
            "name": "tripo_mat_9668eeef",
            "pbrMetallicRoughness": {
                "baseColorTexture": {
                    "index": 0
                },
                "metallicRoughnessTexture": {
                    "index": 1
                },
                "baseColorFactor": [
                    0.800000011920929,
                    0.800000011920929,
                    0.800000011920929,
                    1.0
                ],
                "metallicFactor": 0.0,
                "roughnessFactor": 0.5
            },
            "normalTexture": {
                "index": 2
            },
            "extensions": {
                "KHR_materials_specular": {
                    "specularFactor": 1.0,
                    "specularColorFactor": [
                        0.800000011920929,
                        0.800000011920929,
                        0.800000011920929
                    ]
                }
            }
        }
    ],
    "meshes": [
        {
            "name": "tripo_mesh_9668eeef",
            "primitives": [
                {
                    "extensions": {
                        "FB_ngon_encoding": {}
                    },
                    "mode": 4,
                    "material": 0,
                    "indices": 3,
                    "attributes": {
                        "POSITION": 0,
                        "NORMAL": 1,
                        "TEXCOORD_0": 2
                    }
                }
            ]
        }
    ],
    "nodes": [
        {
            "name": "RootNode",
            "children": [
                1
            ]
        },
        {
            "name": "tripo_node_9668eeef",
            "matrix": [
                1.0,
                0.0,
                0.0,
                0.0,
                0.0,
                -4.371138828673793e-8,
                -1.0,
                0.0,
                0.0,
                1.0,
                -4.371138828673793e-8,
                0.0,
                0.0,
                0.0,
                0.0,
                1.0
            ],
            "mesh": 0,
            "extras": {
                "UserProperties": "",
                "IsNull": false,
                "DefaultAttributeIndex": 0,
                "InheritType": 1
            }
        }
    ],
    "samplers": [
        {},
        {},
        {}
    ],
    "scenes": [
        {
            "nodes": [
                0
            ]
        }
    ],
    "textures": [
        {
            "source": 0,
            "sampler": 0
        },
        {
            "source": 1,
            "sampler": 1
        },
        {
            "source": 2,
            "sampler": 2
        }
    ],
    "scene": 0
}